<?xml version="1.0" encoding="UTF-8" standalone="no"?><!DOCTYPE svg PUBLIC "-//W3C//DTD SVG 1.1//EN" "http://www.w3.org/Graphics/SVG/1.1/DTD/svg11.dtd"><svg width="100%" height="100%" viewBox="0 0 22680 6105" version="1.1" xmlns="http://www.w3.org/2000/svg" xmlns:xlink="http://www.w3.org/1999/xlink" xml:space="preserve" xmlns:serif="http://www.serif.com/" style="fill-rule:evenodd;clip-rule:evenodd;stroke-linejoin:round;stroke-miterlimit:2;"><rect id="Artboard1" x="0" y="0" width="22679.2" height="6104.17" style="fill:none;"/><g id="Artboard11" serif:id="Artboard1"><g><rect x="3760.1" y="2434.67" width="490.403" height="500.942" style="fill:#87991d;"/><rect x="3760.1" y="1870.12" width="490.403" height="500.849" style="fill:#d7df22;"/><rect x="4323.07" y="2427.02" width="490.403" height="500.849" style="fill:#bad758;"/><rect x="3760.1" y="2979.36" width="490.403" height="500.849" style="fill:#d7df22;"/><rect x="3214.11" y="1866.39" width="490.31" height="500.942" style="fill:#a1ab1a;"/><rect x="2652.26" y="2434.67" width="490.403" height="500.942" style="fill:#d7df22;"/><rect x="2652.26" y="1870.12" width="490.403" height="500.849" style="fill:#bad758;"/><rect x="3214.11" y="2975.63" width="490.31" height="500.942" style="fill:#d7df22;"/><rect x="2652.26" y="3543.91" width="490.403" height="500.849" style="fill:#92c83d;"/><rect x="2652.26" y="2979.36" width="490.403" height="500.849" style="fill:#c2cb20;"/><rect x="3215.42" y="3536.26" width="490.31" height="500.849" style="fill:#cccc31;"/><rect x="3760.1" y="4109.67" width="490.403" height="500.942" style="fill:#cccc31;"/><rect x="4321.76" y="4650.62" width="490.403" height="500.942" style="fill:#ece94d;"/><rect x="4321.76" y="3537.38" width="490.403" height="500.849" style="fill:#ece94d;"/><rect x="3760.1" y="5219" width="490.403" height="500.849" style="fill:#92c83d;"/><rect x="2652.26" y="4109.67" width="490.403" height="500.942" style="fill:#cccc31;"/><rect x="3215.42" y="4102.02" width="490.31" height="500.849" style="fill:#bad758;"/><rect x="3214.11" y="4650.62" width="490.31" height="500.942" style="fill:#d7df22;"/><rect x="2652.26" y="4654.36" width="490.403" height="500.849" style="fill:#a1ab1a;"/><rect x="2099.09" y="2434.67" width="490.496" height="500.942" style="fill:#d7df22;"/><rect x="2099.09" y="3543.91" width="490.496" height="500.849" style="fill:#9fb92b;"/><rect x="2099.09" y="2979.36" width="490.496" height="500.849" style="fill:#bad758;"/><rect x="2099.09" y="4109.67" width="490.496" height="500.942" style="fill:#87991d;"/><rect x="3215.42" y="5211.26" width="490.31" height="500.849" style="fill:#bad758;"/><path d="M4201.88,1389.28c0,-0 255.461,-1165.48 1750.73,-986.216c-126.471,681.696 -1026.04,1304.82 -1750.73,986.216" style="fill:#b1c529;fill-rule:nonzero;"/><rect x="4906.55" y="3536.26" width="490.496" height="500.849" style="fill:#a1ab1a;"/><g><text x="6064.47px" y="4080.19px" style="font-family:'OpenSans-SemiBold', 'Open Sans', sans-serif;font-weight:600;font-size:1678.82px;fill:#92c83d;">P<tspan x="7013.4px 7896.75px 8780.1px 9419.99px 9842.58px 10708.7px 11690.4px 12266.4px 13207.9px 13847.8px 14231.9px 15213.7px 16063.4px 16486px 17466.1px 18349.4px 19331.1px 19907.1px 20790.4px " y="4080.19px 4080.19px 4080.19px 4080.19px 4080.19px 4080.19px 4080.19px 4080.19px 4080.19px 4080.19px 4080.19px 4080.19px 4080.19px 4080.19px 4080.19px 4080.19px 4080.19px 4080.19px 4080.19px ">eer Tutoring Center</tspan></text><text x="6200.46px" y="2534.85px" style="font-family:'OpenSans-SemiBold', 'Open Sans', sans-serif;font-weight:600;font-size:652.876px;fill:#8fa423;">N<tspan x="6652.53px 7011.85px 7363.89px 7502.84px 7736.36px 7946.23px 8306.16px 8632.13px " y="2534.85px 2534.85px 2534.85px 2534.85px 2534.85px 2534.85px 2534.85px 2534.85px ">CVirtual</tspan></text></g></g></g></svg>