<?xml version="1.0" encoding="UTF-8" standalone="no"?><!DOCTYPE svg PUBLIC "-//W3C//DTD SVG 1.1//EN" "http://www.w3.org/Graphics/SVG/1.1/DTD/svg11.dtd"><svg width="100%" height="100%" viewBox="0 0 5443 1465" version="1.1" xmlns="http://www.w3.org/2000/svg" xmlns:xlink="http://www.w3.org/1999/xlink" xml:space="preserve" xmlns:serif="http://www.serif.com/" style="fill-rule:evenodd;clip-rule:evenodd;"><g id="Layer-1" serif:id="Layer 1"><path d="M753.985,801.236c-214.295,-86.587 -428.083,-102.916 -641.866,0l-0,221.196c194.246,-46.996 453.979,-88.15 621.816,0c6.359,3.183 13.18,6.821 20.05,10.025l0,-231.221Zm-641.304,-126.146c23.717,-332.575 302.475,-594.975 641.304,-594.975l0,686.275c-6.87,-3.716 -13.691,-7.358 -20.05,-11.075c-219.579,-129.329 -426.491,-111.354 -621.816,0l0.562,-80.225Zm641.304,357.367c210.146,98.692 489.875,57.538 641.434,-23.771l-0,-220.629c-166.3,61.742 -480.388,78.613 -641.434,13.179l0,231.221Zm0,-952.342l0.538,0c338.908,0 618.154,263.45 640.896,597.638l-0,41.667c-166.838,52.279 -454.567,139.354 -641.434,46.97l0,-686.275Z" style="fill:#a5cd3a;"/><path d="M112.117,1088.4c213.788,-102.917 427.571,-108.2 641.867,-8.971c151.021,70.196 475.159,61.737 641.438,-0l-0,220.679c-172.634,29.562 -460.879,42.742 -661.484,-0c-207.479,-43.871 -414.391,-33.821 -621.821,-0l0.001,-211.708Z" style="fill:#13b5ea;"/><path d="M704.425,97.013l158.325,347.879c2.104,19.541 -4.229,35.383 -23.175,37l-117.742,-6.871l-2.666,836.654l-43.28,-1.562l-43.279,1.562l-2.666,-836.654l-117.688,6.871c-19,-1.617 -25.383,-17.459 -23.229,-37l158.35,-347.88c13.692,-23.179 41.179,-23.179 57.05,0" style="fill:#fff;"/><path d="M704.425,97.013l158.325,347.879c2.104,19.541 -4.229,35.383 -23.175,37l-117.742,-6.871l-2.666,836.654l-43.28,-1.562l-43.279,1.562l-2.666,-836.654l-117.688,6.871c-19,-1.617 -25.383,-17.459 -23.229,-37l158.35,-347.88c13.692,-23.179 41.179,-23.179 57.05,0Z" style="fill:#fff;fill-rule:nonzero;stroke:#000;stroke-width:29.17px;"/><path d="M445.231,471.302l158.3,347.884c2.154,19.537 -4.15,35.408 -23.179,36.946l-117.683,-6.821l-2.692,462.362l-43.258,-1.562l-43.304,1.562l-2.588,-462.362l-117.767,6.821c-19,-1.538 -25.333,-17.409 -23.204,-36.946l158.35,-347.884c13.746,-23.229 41.129,-23.229 57.025,0" style="fill:#fff;stroke:#000;stroke-width:29.17px;"/><path d="M445.231,471.302l158.3,347.884c2.154,19.537 -4.15,35.408 -23.179,36.946l-117.683,-6.821l-2.692,462.362l-43.258,-1.562l-43.304,1.562l-2.588,-462.362l-117.767,6.821c-19,-1.538 -25.333,-17.409 -23.204,-36.946l158.35,-347.884c13.746,-23.229 41.129,-23.229 57.025,0Z" style="fill:none;fill-rule:nonzero;stroke:#231f20;stroke-width:1.6px;"/><path d="M1119.3,327.18l158.375,347.909c2.105,19.512 -4.225,35.871 -23.225,37.458l-117.175,-6.871l-2.641,605.996l-43.796,-1.562l-43.329,1.562l-2.667,-605.996l-117.688,6.871c-19.025,-1.587 -25.329,-17.946 -23.229,-37.458l158.35,-347.909c13.771,-22.716 41.209,-23.204 57.025,0" style="fill:#fff;stroke:#000;stroke-width:29.17px;"/><path d="M1119.3,327.18l158.375,347.909c2.105,19.512 -4.225,35.871 -23.225,37.458l-117.175,-6.871l-2.641,605.996l-43.796,-1.562l-43.329,1.562l-2.667,-605.996l-117.688,6.871c-19.025,-1.587 -25.329,-17.946 -23.229,-37.458l158.35,-347.909c13.771,-22.716 41.209,-23.204 57.025,0Z" style="fill:none;fill-rule:nonzero;stroke:#231f20;stroke-width:1.6px;"/><path d="M906.596,586.374l158.35,347.884c2.104,19.537 -4.204,35.895 -23.229,37.483l-117.688,-6.871l-2.666,346.804l-43.28,-1.562l-43.845,1.562l-2.613,-346.804l-117.2,6.871c-19,-1.588 -25.333,-17.946 -23.229,-37.483l158.375,-347.884c13.717,-22.662 41.179,-23.179 57.025,0" style="fill:#fff;stroke:#000;stroke-width:29.17px;"/><path d="M906.596,586.374l158.35,347.884c2.104,19.537 -4.204,35.895 -23.229,37.483l-117.688,-6.871l-2.666,346.804l-43.28,-1.562l-43.845,1.562l-2.613,-346.804l-117.2,6.871c-19,-1.588 -25.333,-17.946 -23.229,-37.483l158.375,-347.884c13.717,-22.662 41.179,-23.179 57.025,0Z" style="fill:none;fill-rule:nonzero;stroke:#231f20;stroke-width:1.6px;"/><path d="M1580.12,826.2c1.433,-21.284 2.571,-44.25 3.433,-68.892c0.854,-24.642 1.213,-51.392 1.213,-80.25c-0,-27.25 -0.359,-53.821 -1.213,-79.75c-0.862,-25.967 -2.075,-51 -3.571,-75.071c3.571,0.533 7.284,0.925 11.175,1.25c3.896,0.358 8.109,0.538 12.788,0.538c4.387,-0 8.641,-0.146 12.462,-0.43c3.929,-0.325 7.642,-0.754 11.213,-1.358c30.292,33.925 60.929,67.854 91.896,101.892c30.966,34.037 62.25,68.108 93.825,102.287l-0,-52.358c-0,-9.679 -0.146,-28.538 -0.434,-56.571c-0.316,-27.929 -0.712,-59.717 -1.283,-95.25c2.783,0.533 5.712,0.925 8.746,1.25c3.075,0.358 6.325,0.538 9.683,0.538c3.788,-0 7.283,-0.18 10.425,-0.538c3.075,-0.325 6.071,-0.717 8.825,-1.25c-1.321,12.679 -2.142,32.142 -2.679,58.429c-0.5,26.321 -0.788,68.679 -0.788,127.038l0,24.496c0,23.858 0.288,42.679 0.788,56.645c0.537,13.892 1.358,26.355 2.679,37.355c-3.467,-0.713 -6.821,-1.317 -9.896,-1.75c-3.212,-0.359 -6.283,-0.538 -9.354,-0.538c-2.929,0 -6.075,0.179 -9.283,0.538c-3.288,0.433 -6.825,1.037 -10.504,1.75c-27.638,-31.571 -57.288,-64.675 -88.859,-99.392c-31.646,-34.679 -66.712,-72.642 -105.283,-113.788l-0,129.859c-0,5.391 0.142,15.679 0.429,30.929c0.288,15.217 0.713,32.679 1.354,52.392c-3.746,-0.713 -7.141,-1.317 -10.141,-1.75c-3,-0.359 -6,-0.538 -8.855,-0.538c-2.75,0 -5.65,0.179 -8.716,0.538c-3.071,0.433 -6.429,1.037 -10.075,1.75" style="fill:#181410;fill-rule:nonzero;"/><path d="M1946.98,719.844c-0,33.75 3.5,57.466 10.5,71.212c7.071,13.788 18.854,20.679 35.392,20.679c16.683,0 28.608,-6.962 35.679,-20.783c7.108,-13.821 10.641,-37.5 10.641,-71.108c0,-33.784 -3.533,-57.642 -10.641,-71.571c-7.071,-14 -18.996,-21 -35.679,-21c-16.538,-0 -28.321,6.929 -35.392,20.783c-7,13.788 -10.5,37.679 -10.5,71.788m-65.571,-0c0,-35.463 9.858,-63.109 29.604,-82.788c19.717,-19.641 47.109,-29.533 82.288,-29.533c35.679,-0 63.175,9.75 82.462,29.212c19.325,19.5 29.004,47.18 29.004,83.109c0,35.146 -9.895,62.537 -29.5,82.25c-19.683,19.537 -47.141,29.354 -82.395,29.354c-35.463,-0 -62.892,-9.75 -82.284,-29.317c-19.429,-19.575 -29.179,-47 -29.179,-82.287" style="fill:#181410;fill-rule:nonzero;"/><path d="M2133.12,826.2c0.929,-14.571 1.646,-30.713 2.146,-48.321c0.5,-17.604 0.712,-37.071 0.712,-58.321c0,-26.5 -0.212,-47.788 -0.712,-63.858c-0.5,-16.071 -1.217,-30.25 -2.146,-42.392c4.646,0.608 9.433,1.033 14.466,1.321c5.105,0.287 10.575,0.462 16.467,0.462c5.788,0 11.213,-0.175 16.283,-0.462c4.996,-0.288 9.75,-0.713 14.288,-1.321c-0.788,13.75 -1.25,25.108 -1.608,34.071c-0.392,8.929 -0.609,16.571 -0.609,22.716l2.217,0c5.212,-20.466 13.712,-36.037 25.425,-46.645c11.783,-10.571 26.254,-15.925 43.5,-15.925l2.396,-0c-0.934,5.354 -1.679,10.783 -2.179,16.141c-0.505,5.392 -0.713,10.713 -0.713,16.104c0,5.505 0.208,11.109 0.713,16.68c0.5,5.575 1.245,11.108 2.179,16.641c-6.146,-2.141 -11.609,-3.75 -16.359,-4.816c-4.75,-1.005 -9.037,-1.609 -12.82,-1.609c-14.788,0 -25.538,5.034 -32.146,15c-6.713,10 -9.996,26.038 -9.996,48.213c-0,17.037 0.321,33.679 0.996,49.891c0.641,16.18 1.646,31.68 3.004,46.43c-5.929,-0.534 -11.575,-1 -16.929,-1.288c-5.429,-0.283 -10.717,-0.462 -15.892,-0.462c-4.896,-0 -9.967,0.216 -15.287,0.5c-5.255,0.395 -11.038,0.754 -17.396,1.25" style="fill:#181410;fill-rule:nonzero;"/><path d="M2297.45,638.273l-7.925,-0c-5.934,-0 -10.5,0.033 -13.609,0.141c-3.108,0.038 -6,0.109 -8.641,0.288c0.283,-1.571 0.495,-3.071 0.57,-4.5c0.071,-1.467 0.071,-3.75 0.071,-6.892c0,-3.183 -0.071,-5.608 -0.216,-7.217c-0.142,-1.641 -0.288,-3.141 -0.425,-4.429c0.57,0.109 1.462,0.25 2.641,0.392c10.609,0.896 18.175,1.325 22.675,1.325l4.859,-0.217c0.145,-2 0.254,-4.212 0.325,-6.571c0.137,-2.321 0.137,-5.858 0.137,-10.641c0,-5.788 -0.179,-11.967 -0.425,-18.5c-0.287,-6.571 -0.646,-14.713 -1.146,-24.43c10.25,-3.929 20.429,-8.108 30.396,-12.466c10.038,-4.392 19.754,-8.925 29.175,-13.571l4.788,3.679c-0.892,17.071 -1.571,31.358 -2,42.821c-0.396,11.467 -0.605,20.146 -0.605,26.146l0,13.75c8.071,-0 15.642,-0.075 22.68,-0.359c7,-0.25 13.854,-0.641 20.533,-1.179c-0.429,3.359 -0.75,5.713 -0.821,7.109c0,1.5 -0.071,2.891 -0.071,4.358c0,2.425 0.217,5.783 0.642,10.104c0.321,0.571 0.429,1.038 0.25,1.288c-3.5,-0.18 -8.108,-0.25 -13.788,-0.288c-5.679,-0.108 -15.82,-0.142 -30.354,-0.142c0,2.18 -0.037,5.609 -0.179,10.25c-1,30.571 -1.537,52.321 -1.537,65.321l-0,17.859c-0,34 1.679,55.033 5.037,63.141c3.358,8.179 9.821,12.25 19.429,12.25c4.784,0 13.429,-1.679 25.784,-5.033l0.254,-0.217l-0,16.859c-9.754,4.391 -18.792,7.608 -27.179,9.641c-8.321,2.071 -16.359,3.105 -24.075,3.105c-19.034,-0 -33.567,-5.067 -43.571,-15.105c-10,-10.141 -15.038,-24.712 -15.038,-43.929c0,-0.712 0.25,-13.425 0.684,-38.033c0.425,-24.609 0.675,-48.821 0.675,-72.679l-0,-23.43Z" style="fill:#181410;fill-rule:nonzero;"/><path d="M2423.3,826.2c1.288,-15.605 2.175,-35.071 2.684,-58.142c0.496,-23.142 0.779,-56.608 0.779,-100.429c-0,-46.392 -0.283,-82.571 -0.779,-108.534c-0.509,-25.966 -1.396,-48.287 -2.684,-66.966c6.071,1.141 11.746,2 17.038,2.608c5.283,0.571 10.354,0.821 15.283,0.821c5.217,-0 10.5,-0.25 15.859,-0.821c5.391,-0.608 11,-1.467 16.783,-2.608c-1.5,12.179 -2.604,25.216 -3.425,39.212c-0.825,13.967 -1.213,28.967 -1.213,45.075l0,69.571c8.105,-12.467 17.855,-21.75 29.35,-27.929c11.505,-6.25 24.538,-9.392 39.363,-9.392c10.712,0 20.533,1.892 29.462,5.571c8.93,3.679 16.396,9.104 22.467,16.179c5.246,5.963 9,13.354 11.104,22.175c2.179,8.859 3.288,23.075 3.288,42.788c-0,2.929 -0.109,10.571 -0.25,22.929c-0.142,12.467 -0.217,23.321 -0.217,32.75c0,16.392 0.217,30.462 0.717,42.25c0.496,11.787 1.212,22.821 2.216,32.892c-6.22,-0.713 -11.966,-1.317 -17.57,-1.75c-5.505,-0.359 -10.721,-0.538 -15.538,-0.538c-5.108,0 -10.396,0.179 -15.646,0.538c-5.321,0.433 -11.175,1.037 -17.391,1.75c1.07,-12.534 1.925,-27.605 2.537,-45.071c0.604,-17.5 0.892,-36.963 0.892,-58.392c-0,-32.217 -2.504,-53.037 -7.575,-62.358c-5.067,-9.321 -14.279,-14 -27.784,-14c-13.425,-0 -23.07,5.608 -28.929,16.712c-5.858,11.113 -8.783,29.967 -8.783,56.396c-0,13.858 0.246,29.892 0.75,48c0.392,18 1.067,37.608 1.962,58.713c-5.858,-0.713 -11.391,-1.317 -16.783,-1.75c-5.358,-0.359 -10.571,-0.538 -15.646,-0.538c-4.929,0 -10,0.179 -15.391,0.538c-5.392,0.433 -11,1.037 -16.93,1.75" style="fill:#181410;fill-rule:nonzero;"/><path d="M2990.84,592.164l-6.354,0.859c-4.75,-15.788 -14.254,-28 -28.433,-36.75c-14.25,-8.717 -31.925,-13.109 -53.142,-13.109c-31.996,0 -56.929,11.217 -74.787,33.679c-17.854,22.463 -26.779,53.93 -26.779,94.538c-0,43.783 9.066,77.071 27.279,100.108c18.216,22.929 44.641,34.425 79.325,34.425c14.925,0 29.966,-2.891 45.108,-8.712c15.138,-5.788 28.925,-13.929 41.288,-24.396l5.429,1.325l-10.221,37.429c-14.25,6.854 -29.071,12.033 -44.496,15.392c-15.467,3.358 -31.721,5.033 -48.858,5.033c-52.075,0 -92.575,-13.962 -121.575,-41.925c-29,-27.967 -43.463,-67.038 -43.463,-117.217c0,-47.5 15.679,-85.537 46.929,-114.141c31.25,-28.538 73.105,-42.825 125.467,-42.825c16.567,-0 33,1.858 49.283,5.5c16.359,3.683 32.93,9.325 49.821,16.895c-2.679,8.142 -5.033,16.642 -7.033,25.534c-2.038,8.929 -3.646,18.358 -4.788,28.358" style="fill:#181410;fill-rule:nonzero;"/><path d="M3131.85,708.63c-20.466,4.212 -35.254,10.608 -44.358,19.179c-9.071,8.571 -13.642,20.429 -13.642,35.712c0,12.788 2.321,22.359 7,28.75c4.534,6.359 11.425,9.575 20.5,9.575c9.821,0 17.359,-3.537 22.604,-10.646c5.25,-7.108 7.896,-17.391 7.896,-30.712l0,-51.858Zm1.929,89.32c-6.358,10.75 -14.683,18.967 -25.041,24.788c-10.392,5.783 -22.104,8.712 -35.175,8.712c-18.684,0 -33.359,-5.566 -44,-16.641c-10.675,-11.109 -16,-26.25 -16,-45.429c-0,-14.109 3.75,-25.713 11.283,-34.859c7.538,-9.141 19.358,-16.354 35.429,-21.75c5.25,-1.712 12.788,-4.141 22.642,-7.179c23.217,-6.962 39.112,-13.321 47.646,-19.142c0.141,-0.891 0.287,-1.891 0.358,-2.962c0.108,-1.075 0.108,-2.642 0.108,-4.642c0,-13.433 -3.825,-24.146 -11.541,-32.108c-7.642,-7.929 -17.854,-11.967 -30.534,-11.967c-10.033,0 -19.108,2.892 -27.25,8.467c-8.216,5.642 -15.783,14.212 -22.645,25.783c-2.246,-6.925 -4.067,-12.5 -5.534,-16.712c-1.425,-4.146 -2.891,-8.038 -4.321,-11.646c13.146,-11.392 26.142,-19.854 39.071,-25.429c12.821,-5.534 26.254,-8.25 40.109,-8.25c26.608,-0 47.033,6.108 61.283,18.358c14.25,12.321 21.358,29.788 21.358,52.571l0,2.217l-1.175,77.75l0,8.466c0,18.213 2.067,29.925 5.996,35.034c4.038,5.179 11.858,7.75 23.429,7.75l1.363,-0l-0,11.25c-7.575,3.216 -15.434,5.683 -23.504,7.391c-8.142,1.717 -15.925,2.5 -23.284,2.5c-10.75,0 -19.504,-2.75 -26.358,-8.212c-6.788,-5.5 -11.363,-13.538 -13.713,-24.109" style="fill:#181410;fill-rule:nonzero;"/><path d="M3239.49,826.2c1,-14.571 1.712,-30.713 2.142,-48.321c0.537,-17.604 0.787,-37.071 0.787,-58.321c0,-26.5 -0.25,-47.788 -0.787,-63.858c-0.43,-16.071 -1.142,-30.25 -2.142,-42.392c4.575,0.608 9.496,1.033 14.5,1.321c5.033,0.287 10.575,0.462 16.429,0.462c5.788,0 11.25,-0.175 16.246,-0.462c5.037,-0.288 9.825,-0.713 14.325,-1.321c-0.717,13.75 -1.288,25.108 -1.646,34.071c-0.358,8.929 -0.496,16.571 -0.496,22.716l2.142,0c5.25,-20.466 13.712,-36.037 25.5,-46.645c11.75,-10.571 26.217,-15.925 43.429,-15.925l2.429,-0c-1,5.354 -1.712,10.783 -2.179,16.141c-0.462,5.392 -0.75,10.713 -0.75,16.104c0,5.505 0.288,11.109 0.75,16.68c0.467,5.575 1.179,11.108 2.179,16.641c-6.141,-2.141 -11.641,-3.75 -16.358,-4.816c-4.783,-1.005 -9.071,-1.609 -12.783,-1.609c-14.859,0 -25.575,5.034 -32.255,15c-6.675,10 -9.962,26.038 -9.962,48.213c-0,17.037 0.283,33.679 1,49.891c0.717,16.18 1.712,31.68 3.071,46.43c-5.929,-0.534 -11.571,-1 -17.038,-1.288c-5.321,-0.283 -10.675,-0.462 -15.816,-0.462c-4.934,-0 -10.075,0.216 -15.288,0.5c-5.287,0.395 -11.075,0.754 -17.429,1.25" style="fill:#181410;fill-rule:nonzero;"/><path d="M3448.49,719.844c0,33.75 3.571,57.466 10.571,71.212c7.038,13.788 18.825,20.679 35.358,20.679c16.646,0 28.571,-6.962 35.642,-20.783c7.142,-13.821 10.713,-37.5 10.713,-71.108c-0,-33.784 -3.571,-57.642 -10.713,-71.571c-7.071,-14 -18.996,-21 -35.642,-21c-16.533,-0 -28.32,6.929 -35.358,20.783c-7,13.788 -10.571,37.679 -10.571,71.788m-65.504,-0c0,-35.463 9.825,-63.109 29.542,-82.788c19.746,-19.641 47.175,-29.533 82.316,-29.533c35.646,-0 63.142,9.75 82.505,29.212c19.32,19.5 28.962,47.18 28.962,83.109c0,35.146 -9.892,62.537 -29.533,82.25c-19.646,19.537 -47.113,29.354 -82.359,29.354c-35.429,-0 -62.854,-9.75 -82.291,-29.317c-19.425,-19.575 -29.142,-47 -29.142,-82.287" style="fill:#181410;fill-rule:nonzero;"/><path d="M3635.2,826.2c1.142,-25.034 2.037,-51.284 2.642,-78.5c0.57,-27.284 0.858,-56.463 0.858,-87.68c-0,-33.033 -0.288,-63.25 -0.858,-90.57c-0.605,-27.359 -1.5,-53.109 -2.642,-77.321c7.142,1.108 13.179,1.821 18.287,2.212c5.034,0.504 9.925,0.679 14.675,0.679c4.821,0 9.825,-0.25 15.18,-0.75c5.358,-0.462 11.358,-1.179 18.037,-2.141c-1.175,25.037 -2.033,51.25 -2.679,78.5c-0.538,27.25 -0.858,56.5 -0.858,87.679c-0,33.071 0.32,63.212 0.858,90.571c0.646,27.358 1.504,53.108 2.679,77.321c-4.967,-0.93 -10.108,-1.713 -15.604,-2.142c-5.538,-0.463 -11.217,-0.717 -17.15,-0.717c-5.921,0 -11.638,0.254 -17.138,0.717c-5.5,0.429 -10.929,1.212 -16.287,2.142" style="fill:#181410;fill-rule:nonzero;"/><path d="M3746.92,826.2c1,-22.746 1.717,-42.534 2.142,-59.25c0.462,-16.75 0.716,-32.392 0.716,-47.071c0,-16.854 -0.254,-33.929 -0.787,-51.392c-0.5,-17.5 -1.25,-35.858 -2.071,-55.179c5,0.429 10.287,0.712 15.712,0.892c5.571,0.179 11.255,0.287 17.075,0.287c5.713,0 11.425,-0.108 17,-0.287c5.567,-0.18 10.784,-0.463 15.784,-0.892c-1,19.321 -1.75,37.679 -2.217,55.179c-0.496,17.463 -0.712,34.538 -0.712,51.392c-0,14.679 0.216,30.391 0.712,47.212c0.467,16.825 1.217,36.467 2.217,59.109c-5.717,-0.713 -11.25,-1.317 -16.646,-1.75c-5.429,-0.359 -10.854,-0.538 -16.138,-0.538c-5.287,0 -10.57,0.179 -16,0.538c-5.429,0.433 -11.037,1.037 -16.787,1.75m-0.608,-293.392c-0,-9.467 3.254,-17.392 9.82,-23.967c6.5,-6.5 14.575,-9.783 24.109,-9.783c9.321,-0 17.179,3.321 23.608,9.929c6.5,6.571 9.75,14.571 9.75,23.821c0,9.462 -3.325,17.392 -9.821,23.858c-6.5,6.463 -14.5,9.675 -23.962,9.675c-9.392,0 -17.325,-3.212 -23.863,-9.675c-6.429,-6.466 -9.641,-14.396 -9.641,-23.858" style="fill:#181410;fill-rule:nonzero;"/><path d="M3857.7,826.2c1.212,-19.68 2.07,-38.213 2.641,-55.713c0.571,-17.537 0.896,-34.321 0.896,-50.358c0,-18.109 -0.325,-36.071 -0.896,-53.859c-0.571,-17.75 -1.429,-35.425 -2.641,-52.962c4.641,0.608 9.57,1.033 14.57,1.321c4.996,0.287 10.359,0.462 16.25,0.462c5.821,0 11.038,-0.175 15.967,-0.462c4.854,-0.288 9.425,-0.713 13.783,-1.321l0,31.142c9.142,-12.142 19.359,-21.142 30.717,-27c11.283,-5.821 23.892,-8.784 37.925,-8.784c10.929,0 20.825,1.892 29.825,5.571c8.958,3.679 16.571,9.104 22.821,16.179c4.887,5.784 8.5,12.929 10.537,21.429c2.109,8.463 3.175,23 3.175,43.534c0,2.929 -0.07,10.571 -0.25,22.929c-0.104,12.467 -0.25,23.321 -0.25,32.75c0,13.892 0.321,27 0.892,39.321c0.538,12.321 1.354,24.287 2.504,35.821c-6.325,-0.713 -12.254,-1.317 -17.716,-1.75c-5.467,-0.359 -10.75,-0.538 -15.859,-0.538c-5.104,0 -10.391,0.179 -15.675,0.538c-5.396,0.433 -11.216,1.037 -17.504,1.75c1.004,-12.534 1.929,-27.605 2.504,-45.071c0.675,-17.5 0.996,-36.963 0.996,-58.392c0,-32.217 -2.571,-53.037 -7.708,-62.358c-5.075,-9.321 -14.325,-14 -27.754,-14c-13.392,-0 -23,5.608 -28.855,16.712c-5.825,11.113 -8.754,29.967 -8.754,56.396c0,12.429 0.142,27.571 0.642,45.358c0.396,17.713 0.933,38.25 1.683,61.355c-5.537,-0.713 -10.966,-1.317 -16.358,-1.75c-5.396,-0.359 -10.571,-0.538 -15.642,-0.538c-4.966,0 -10.037,0.179 -15.471,0.538c-5.354,0.433 -10.995,1.037 -16.995,1.75" style="fill:#181410;fill-rule:nonzero;"/><path d="M4206.2,708.63c-20.462,4.212 -35.287,10.608 -44.391,19.179c-9.109,8.571 -13.642,20.429 -13.642,35.712c-0,12.788 2.321,22.359 6.962,28.75c4.613,6.359 11.43,9.575 20.575,9.575c9.784,0 17.284,-3.537 22.571,-10.646c5.284,-7.108 7.925,-17.391 7.925,-30.712l0,-51.858Zm2,89.32c-6.425,10.75 -14.816,18.967 -25.175,24.788c-10.396,5.783 -22.041,8.712 -35.141,8.712c-18.68,0 -33.4,-5.566 -44.038,-16.641c-10.683,-11.109 -16,-26.25 -16,-45.429c0,-14.109 3.788,-25.713 11.325,-34.859c7.567,-9.141 19.317,-16.354 35.458,-21.75c5.213,-1.712 12.717,-4.141 22.68,-7.179c23.179,-6.962 39.075,-13.321 47.679,-19.142c0.141,-0.891 0.141,-1.891 0.212,-2.962c0.071,-1.075 0.071,-2.642 0.071,-4.642c0,-13.433 -3.783,-24.146 -11.462,-32.108c-7.675,-7.929 -17.892,-11.967 -30.571,-11.967c-10.038,0 -19.104,2.892 -27.213,8.467c-8.179,5.642 -15.754,14.212 -22.679,25.783c-2.183,-6.925 -4.075,-12.5 -5.5,-16.712c-1.429,-4.146 -2.896,-8.038 -4.325,-11.646c13.183,-11.392 26.183,-19.854 39.042,-25.429c12.854,-5.534 26.212,-8.25 40.137,-8.25c26.646,-0 47.004,6.108 61.325,18.358c14.175,12.321 21.321,29.788 21.321,52.571l0,2.217l-1.146,77.75l0,8.466c0,18.213 2,29.925 6,35.034c3.967,5.179 11.821,7.75 23.429,7.75l1.288,-0l-0,11.25c-7.571,3.216 -15.358,5.683 -23.429,7.391c-8.217,1.717 -15.929,2.5 -23.288,2.5c-10.75,0 -19.529,-2.75 -26.354,-8.212c-6.787,-5.5 -11.392,-13.538 -13.646,-24.109" style="fill:#181410;fill-rule:nonzero;"/><path d="M1664.69,1296.42c-11.716,-33.283 -28.037,-76.716 -48.962,-130.179c-20.896,-53.462 -44.146,-111.429 -69.825,-173.75c5.825,0.567 11.825,1 18.004,1.317c6.142,0.254 12.708,0.4 19.854,0.4c6.967,-0 13.575,-0.146 19.717,-0.4c6.179,-0.317 12.071,-0.75 17.712,-1.317c9.463,27.104 20.646,58.609 33.684,94.429c13.029,35.817 28.316,77.713 46.066,125.713c14.18,-32.75 28.18,-67.467 41.963,-104.146c13.717,-36.708 27.358,-75.354 40.858,-115.996c3.359,0.567 6.609,1 9.967,1.317c3.325,0.254 6.962,0.4 10.892,0.4c4.07,-0 7.858,-0.146 11.425,-0.4c3.541,-0.317 6.862,-0.75 10.075,-1.317c-22.788,49.854 -44.43,100.142 -65.071,150.783c-20.646,50.646 -40.213,101.755 -58.788,153.146c-3.321,-0.537 -6.641,-1 -9.712,-1.254c-3.142,-0.317 -6.217,-0.462 -9.071,-0.462c-2.75,-0 -5.713,0.179 -8.858,0.504c-3.071,0.316 -6.43,0.75 -9.93,1.212" style="fill:#a4cd3a;fill-rule:nonzero;"/><path d="M1835.37,1296.42c1.037,-22.712 1.75,-42.462 2.25,-59.254c0.433,-16.712 0.679,-32.429 0.679,-47.033c-0,-16.859 -0.288,-34 -0.821,-51.463c-0.5,-17.466 -1.217,-35.821 -2.108,-55.108c5.033,0.392 10.325,0.675 15.825,0.854c5.533,0.146 11.141,0.283 17,0.283c5.787,0 11.391,-0.137 17,-0.283c5.566,-0.179 10.821,-0.462 15.746,-0.854c-1.034,19.287 -1.75,37.642 -2.18,55.108c-0.495,17.463 -0.75,34.604 -0.75,51.463c0,14.604 0.255,30.391 0.75,47.179c0.43,16.787 1.146,36.575 2.18,59.108c-5.68,-0.75 -11.246,-1.287 -16.609,-1.716c-5.429,-0.392 -10.854,-0.571 -16.137,-0.571c-5.292,-0 -10.571,0.179 -16.004,0.571c-5.43,0.429 -11.034,0.966 -16.821,1.716m-0.609,-293.396c0,-9.391 3.321,-17.391 9.825,-23.962c6.534,-6.504 14.609,-9.75 24.18,-9.75c9.283,-0 17.212,3.246 23.57,9.825c6.496,6.637 9.75,14.637 9.75,23.887c0,9.463 -3.325,17.396 -9.825,23.892c-6.495,6.429 -14.533,9.646 -23.929,9.646c-9.425,-0 -17.425,-3.217 -23.85,-9.646c-6.471,-6.496 -9.721,-14.429 -9.721,-23.892" style="fill:#a4cd3a;fill-rule:nonzero;"/><path d="M1946.27,1296.42c0.929,-14.608 1.646,-30.712 2.146,-48.25c0.5,-17.641 0.783,-37.141 0.783,-58.396c-0,-26.5 -0.283,-47.75 -0.783,-63.82c-0.5,-16.105 -1.217,-30.25 -2.146,-42.392c4.646,0.571 9.391,1 14.5,1.358c5.071,0.213 10.575,0.392 16.433,0.392c5.783,-0 11.213,-0.179 16.283,-0.392c4.996,-0.358 9.75,-0.787 14.25,-1.358c-0.679,13.75 -1.179,25.075 -1.57,34c-0.359,8.962 -0.609,16.571 -0.609,22.746l2.179,-0c5.25,-20.425 13.75,-36.034 25.496,-46.675c11.75,-10.534 26.179,-15.859 43.467,-15.859l2.391,0c-0.891,5.325 -1.675,10.75 -2.179,16.142c-0.5,5.363 -0.708,10.75 -0.708,16.038c0,5.575 0.208,11.108 0.708,16.679c0.505,5.641 1.288,11.108 2.179,16.716c-6.175,-2.145 -11.604,-3.82 -16.316,-4.791c-4.788,-1.067 -9.075,-1.638 -12.859,-1.638c-14.787,0 -25.537,5 -32.145,15.034c-6.713,9.929 -10.034,25.966 -10.034,48.108c0,17.071 0.392,33.712 1.034,49.929c0.641,16.25 1.679,31.717 3.037,46.429c-5.925,-0.537 -11.608,-1 -16.962,-1.254c-5.467,-0.317 -10.717,-0.462 -15.934,-0.462c-4.891,-0 -9.929,0.179 -15.246,0.504c-5.254,0.316 -11.07,0.75 -17.395,1.212" style="fill:#a4cd3a;fill-rule:nonzero;"/><path d="M2110.59,1108.49l-7.925,0c-5.934,0 -10.505,0.038 -13.65,0.146c-3.105,0.033 -5.959,0.175 -8.534,0.317c0.217,-1.6 0.429,-3.109 0.504,-4.567c0.071,-1.396 0.105,-3.717 0.105,-6.896c-0,-3.104 -0.105,-5.571 -0.255,-7.212c-0.137,-1.609 -0.283,-3.109 -0.354,-4.396c0.504,0.108 1.429,0.216 2.575,0.396c10.609,0.891 18.142,1.354 22.642,1.354l4.892,-0.246c0.179,-2 0.254,-4.217 0.32,-6.542c0.071,-2.35 0.142,-5.891 0.142,-10.675c0,-5.787 -0.142,-11.929 -0.425,-18.5c-0.292,-6.641 -0.646,-14.679 -1.217,-24.429c10.321,-3.962 20.467,-8.104 30.5,-12.462c10.005,-4.359 19.717,-8.934 29.142,-13.571l4.788,3.712c-0.892,17.034 -1.571,31.359 -1.93,42.788c-0.466,11.462 -0.712,20.141 -0.712,26.108l-0,13.817c8.067,-0 15.679,-0.138 22.712,-0.425c7.005,-0.217 13.821,-0.609 20.505,-1.109c-0.434,3.284 -0.684,5.675 -0.755,7.109c-0.033,1.425 -0.108,2.858 -0.108,4.283c0,2.504 0.25,5.825 0.642,10.179c0.358,0.538 0.433,0.967 0.221,1.284c-3.505,-0.142 -8.075,-0.284 -13.717,-0.317c-5.717,-0.108 -15.825,-0.146 -30.358,-0.146c-0,2.213 -0.071,5.608 -0.213,10.254c-1,30.567 -1.537,52.321 -1.537,65.388l-0,17.75c-0,34.037 1.679,55.112 5.108,63.216c3.287,8.146 9.75,12.217 19.354,12.217c4.783,0 13.433,-1.646 25.788,-5.004l0.212,-0.246l0,16.854c-9.712,4.392 -18.783,7.646 -27.137,9.679c-8.359,2.038 -16.434,3.071 -24.075,3.071c-19.034,0 -33.567,-5 -43.609,-15.104c-10.037,-10.146 -14.958,-24.754 -14.958,-43.929c-0,-0.717 0.137,-13.396 0.642,-38.038c0.42,-24.608 0.675,-48.82 0.675,-72.679l-0,-23.429Z" style="fill:#a4cd3a;fill-rule:nonzero;"/><path d="M2434.27,1083.56c-1.037,17.821 -1.716,35.571 -2.212,53.288c-0.504,17.712 -0.717,35.321 -0.717,52.821c0,17.783 0.213,35.641 0.717,53.387c0.496,17.825 1.175,35.613 2.212,53.396c-5.787,-0.783 -11.146,-1.321 -16.146,-1.75c-5.07,-0.392 -9.854,-0.571 -14.354,-0.571c-4.712,0 -9.646,0.179 -14.683,0.571c-5.175,0.429 -10.571,0.967 -16.246,1.75l0,-30.212c-9.575,12 -19.787,20.745 -30.75,26.395c-10.967,5.605 -23.467,8.463 -37.467,8.463c-22.925,-0 -39.641,-6.504 -50.137,-19.392c-10.504,-13.004 -15.717,-33.646 -15.717,-62.141l0,-24.538c0,-16.717 -0.287,-34.396 -0.716,-52.929c-0.5,-18.467 -1.255,-38.004 -2.213,-58.538c4.929,0.571 10.213,1 15.713,1.359c5.537,0.212 11.5,0.391 17.712,0.391c6.5,0 12.433,-0.179 17.863,-0.391c5.425,-0.359 10.6,-0.788 15.429,-1.359c-1.15,18.675 -2.004,36.392 -2.575,53.288c-0.609,16.854 -0.925,32.496 -0.925,47.142c-0,32.962 2.566,54.429 7.746,64.425c5.108,10.004 14.325,14.966 27.604,14.966c13.146,0 22.429,-5.033 27.862,-15.179c5.425,-10.142 8.142,-28.175 8.142,-54.037l-0,-70.68c-0,-4.637 -0.142,-10.32 -0.358,-17.07c-0.213,-6.713 -0.496,-14.355 -0.788,-22.855c4.929,0.571 10.146,1 15.467,1.359c5.391,0.212 11.071,0.391 17.25,0.391c5.966,0 11.641,-0.179 17,-0.391c5.321,-0.359 10.429,-0.788 15.287,-1.359" style="fill:#a4cd3a;fill-rule:nonzero;"/><path d="M2584.56,1178.85c-20.466,4.213 -35.287,10.604 -44.391,19.175c-9.034,8.571 -13.646,20.467 -13.646,35.75c-0,12.75 2.325,22.288 7.004,28.75c4.604,6.355 11.462,9.538 20.533,9.538c9.784,-0 17.359,-3.538 22.604,-10.646c5.325,-7.142 7.896,-17.358 7.896,-30.713l0,-51.854Zm1.929,89.321c-6.354,10.75 -14.683,18.996 -25.075,24.784c-10.354,5.82 -22.141,8.716 -35.175,8.716c-18.679,0 -33.32,-5.537 -44,-16.646c-10.641,-11.108 -16.037,-26.212 -16.037,-45.425c-0,-14.112 3.787,-25.641 11.325,-34.862c7.533,-9.108 19.392,-16.425 35.458,-21.746c5.217,-1.717 12.792,-4.142 22.65,-7.179c23.209,-6.963 39.104,-13.392 47.638,-19.146c0.146,-0.892 0.212,-1.887 0.358,-2.962c0.075,-1.071 0.075,-2.605 0.075,-4.642c0,-13.429 -3.825,-24.142 -11.542,-32.108c-7.641,-7.967 -17.82,-11.93 -30.533,-11.93c-10,0 -19.071,2.859 -27.287,8.43c-8.105,5.679 -15.713,14.25 -22.638,25.787c-2.15,-6.933 -4.004,-12.5 -5.5,-16.683c-1.433,-4.142 -2.858,-8.067 -4.325,-11.675c13.179,-11.396 26.183,-19.788 39.104,-25.392c12.825,-5.533 26.254,-8.287 40.146,-8.287c26.571,-0 47.038,6.104 61.213,18.395c14.287,12.284 21.395,29.746 21.395,52.534l0,2.212l-1.179,77.788l0,8.462c0,18.184 2.071,29.892 6.071,35.004c3.963,5.175 11.783,7.746 23.354,7.746l1.288,0l-0,11.25c-7.496,3.254 -15.359,5.679 -23.463,7.359c-8.104,1.712 -15.891,2.533 -23.25,2.533c-10.75,-0 -19.533,-2.75 -26.358,-8.179c-6.821,-5.567 -11.354,-13.567 -13.713,-24.138" style="fill:#a4cd3a;fill-rule:nonzero;"/><path d="M2692.84,1296.42c1.146,-25.075 2,-51.212 2.609,-78.5c0.537,-27.254 0.821,-56.466 0.821,-87.679c-0,-33.041 -0.284,-63.25 -0.821,-90.608c-0.609,-27.321 -1.463,-53.071 -2.609,-77.321c7,1.142 13.109,1.821 18.217,2.321c5,0.392 9.967,0.608 14.679,0.608c4.784,0 9.896,-0.287 15.175,-0.754c5.359,-0.462 11.363,-1.175 18,-2.175c-1.104,25.108 -2,51.288 -2.571,78.571c-0.566,27.25 -0.854,56.466 -0.854,87.641c0,33.038 0.288,63.292 0.854,90.571c0.571,27.4 1.467,53.179 2.571,77.325c-4.925,-0.929 -10.137,-1.679 -15.566,-2.179c-5.5,-0.429 -11.213,-0.75 -17.18,-0.75c-5.891,0 -11.608,0.321 -17.108,0.75c-5.5,0.5 -10.896,1.25 -16.217,2.179" style="fill:#a4cd3a;fill-rule:nonzero;"/><path d="M2954.99,1140.42c23.646,-0 40.646,-5.179 51.071,-15.571c10.429,-10.425 15.641,-27.358 15.641,-50.967c0,-19.354 -4.141,-33.783 -12.354,-43.321c-8.283,-9.533 -20.933,-14.283 -37.933,-14.283c-2.784,0 -6.925,0.213 -12.604,0.642c-0.538,0.179 -0.963,0.212 -1.317,0.212c-0.863,8.284 -1.434,16.575 -1.863,24.754c-0.425,8.246 -0.641,16.463 -0.641,24.784l-0,73.75Zm-69,156c1.712,-20 3.07,-41.892 3.929,-65.609c0.858,-23.712 1.283,-52.462 1.283,-86.287c0,-31.354 -0.425,-59.463 -1.283,-84.392c-0.859,-24.821 -2.217,-47.571 -3.929,-68.212c5.358,0.57 10.641,1.004 15.787,1.287c5.142,0.283 10.213,0.425 15.354,0.425c6.071,0 17.321,-0.287 33.755,-0.858c16.387,-0.567 29.816,-0.854 40.316,-0.854c35,-0 60.609,6.391 76.863,19.216c16.283,12.859 24.387,33.029 24.387,60.571c0,31.534 -10.071,54.817 -30.283,70.108c-20.179,15.284 -50.967,22.963 -92.396,22.963c-1.708,0 -4.212,-0.071 -7.496,-0.25c-3.287,-0.104 -5.646,-0.179 -7.287,-0.179l-0,65.567c-0,3.645 0.354,10.362 1.071,20.291c0.641,9.925 1.854,25.284 3.57,46.213c-6.929,-0.746 -13.462,-1.321 -19.533,-1.717c-6.108,-0.387 -12.075,-0.567 -17.858,-0.567c-5.684,0 -11.396,0.18 -17.392,0.567c-5.933,0.396 -12.217,0.971 -18.858,1.717" style="fill:#181410;fill-rule:nonzero;"/><path d="M3315.74,1083.56c-0.962,17.821 -1.679,35.571 -2.175,53.288c-0.467,17.712 -0.717,35.321 -0.717,52.821c0,17.783 0.25,35.641 0.717,53.387c0.496,17.825 1.213,35.613 2.175,53.396c-5.675,-0.783 -11.104,-1.321 -16.037,-1.75c-5.142,-0.392 -9.925,-0.571 -14.392,-0.571c-4.746,0 -9.604,0.179 -14.75,0.571c-5.104,0.429 -10.496,0.967 -16.213,1.75l0,-30.212c-9.57,12 -19.787,20.745 -30.783,26.395c-10.929,5.605 -23.396,8.463 -37.504,8.463c-22.854,-0 -39.533,-6.504 -50.038,-19.392c-10.495,-13.004 -15.745,-33.646 -15.745,-62.141l-0,-24.538c-0,-16.717 -0.217,-34.396 -0.75,-52.929c-0.43,-18.467 -1.18,-38.004 -2.18,-58.538c4.963,0.571 10.284,1 15.746,1.359c5.538,0.212 11.467,0.391 17.754,0.391c6.392,0 12.284,-0.179 17.859,-0.391c5.429,-0.359 10.571,-0.788 15.354,-1.359c-1.142,18.675 -2.033,36.392 -2.642,53.288c-0.496,16.854 -0.825,32.496 -0.825,47.142c0,32.962 2.609,54.429 7.684,64.425c5.145,10.004 14.354,14.966 27.712,14.966c13.108,0 22.396,-5.033 27.854,-15.179c5.434,-10.142 8.109,-28.175 8.109,-54.037l-0,-70.68c-0,-4.637 -0.105,-10.32 -0.392,-17.07c-0.213,-6.713 -0.429,-14.355 -0.783,-22.855c4.995,0.571 10.141,1 15.5,1.359c5.316,0.212 11.07,0.391 17.216,0.391c5.996,0 11.709,-0.179 17.034,-0.391c5.32,-0.359 10.391,-0.788 15.212,-1.359" style="fill:#181410;fill-rule:nonzero;"/><path d="M3467.7,1104.42c-15.571,0 -26.717,6.925 -33.5,20.746c-6.783,13.825 -10.212,37.329 -10.212,70.467c-0,30.679 3.141,52.358 9.425,65.037c6.25,12.575 16.645,18.963 31.283,18.963c15.862,-0 27.221,-7.179 34.075,-21.429c6.787,-14.213 10.212,-38.355 10.212,-72.355c0,-29.679 -3.141,-50.612 -9.462,-62.933c-6.358,-12.321 -16.929,-18.496 -31.821,-18.496m-105.467,192c1.646,-19.391 2.821,-42.216 3.538,-68.358c0.75,-26.25 1.108,-59.071 1.108,-98.679c0,-39.571 -0.358,-72.463 -1.108,-98.675c-0.717,-26.15 -1.892,-48.934 -3.538,-68.392c7.467,1.138 13.788,1.854 18.967,2.317c5.146,0.391 10.108,0.608 14.746,0.608c4.612,0 9.687,-0.287 15.004,-0.754c5.321,-0.463 11.325,-1.175 18.038,-2.171c-0.788,13.638 -1.359,26.138 -1.792,37.529c-0.354,11.396 -0.567,22.359 -0.567,32.967l0,72.5c8.146,-9.533 17.071,-16.5 26.784,-20.929c9.787,-4.425 21.358,-6.608 34.891,-6.608c25.971,-0 46.609,9.5 62.038,28.429c15.358,19 23.071,44.571 23.071,76.75c-0,36.358 -9.071,65.321 -27.355,86.929c-18.212,21.604 -42.57,32.358 -73.07,32.358c-13.034,0 -24.646,-2.462 -34.863,-7.429c-10.137,-4.962 -19.783,-12.821 -28.925,-23.642c-7.537,3.675 -14.5,7.571 -20.962,11.75c-6.392,4.18 -12.325,8.68 -17.825,13.5l-8.18,0Z" style="fill:#181410;fill-rule:nonzero;"/><path d="M3607.35,1296.42c1.175,-25.075 2.07,-51.212 2.641,-78.5c0.571,-27.254 0.859,-56.466 0.859,-87.679c-0,-33.041 -0.288,-63.25 -0.859,-90.608c-0.571,-27.321 -1.466,-53.071 -2.641,-77.321c7.066,1.142 13.212,1.821 18.212,2.321c5.075,0.392 10.038,0.608 14.788,0.608c4.716,0 9.787,-0.287 15.141,-0.754c5.359,-0.462 11.359,-1.175 18,-2.175c-1.137,25.108 -2,51.288 -2.571,78.571c-0.641,27.25 -0.854,56.466 -0.854,87.641c0,33.038 0.213,63.292 0.854,90.571c0.571,27.4 1.434,53.179 2.571,77.325c-4.929,-0.929 -10.071,-1.679 -15.566,-2.179c-5.505,-0.429 -11.255,-0.75 -17.15,-0.75c-5.925,0 -11.638,0.321 -17.18,0.75c-5.458,0.5 -10.854,1.25 -16.245,2.179" style="fill:#181410;fill-rule:nonzero;"/><path d="M3718.95,1296.42c1.071,-22.712 1.821,-42.462 2.246,-59.254c0.463,-16.712 0.679,-32.429 0.679,-47.033c0,-16.859 -0.216,-34 -0.75,-51.463c-0.604,-17.466 -1.283,-35.821 -2.175,-55.108c5.105,0.392 10.355,0.675 15.892,0.854c5.463,0.146 11.142,0.283 16.929,0.283c5.788,0 11.463,-0.137 17,-0.283c5.571,-0.179 10.859,-0.462 15.746,-0.854c-0.892,19.287 -1.675,37.642 -2.175,55.108c-0.5,17.463 -0.712,34.604 -0.712,51.463c-0,14.604 0.212,30.391 0.712,47.179c0.5,16.787 1.283,36.575 2.175,59.108c-5.604,-0.75 -11.137,-1.287 -16.604,-1.716c-5.429,-0.392 -10.821,-0.571 -16.142,-0.571c-5.216,-0 -10.504,0.179 -15.966,0.571c-5.392,0.429 -11.038,0.966 -16.855,1.716m-0.537,-293.396c-0,-9.391 3.246,-17.391 9.787,-23.962c6.496,-6.504 14.605,-9.75 24.213,-9.75c9.25,-0 17.142,3.246 23.642,9.825c6.429,6.637 9.608,14.637 9.608,23.887c-0,9.463 -3.254,17.396 -9.821,23.892c-6.5,6.429 -14.462,9.646 -23.858,9.646c-9.5,-0 -17.429,-3.217 -23.896,-9.646c-6.429,-6.496 -9.675,-14.429 -9.675,-23.892" style="fill:#181410;fill-rule:nonzero;"/><path d="M3996.24,1254.67l3.067,2.038c-1.034,7.25 -1.821,12.679 -2.392,16.141c-0.425,3.5 -0.854,6.571 -1.071,9.217c-10.175,6.604 -20.891,11.533 -32.141,14.783c-11.213,3.18 -23.25,4.821 -36.142,4.821c-34.929,0 -62.646,-9.929 -83.146,-29.75c-20.496,-19.929 -30.75,-46.854 -30.75,-80.746c0,-33.97 10.5,-61.362 31.538,-82.183c21.075,-20.821 48.712,-31.25 83.108,-31.25c15.537,0 29.675,1.679 42.533,5.033c12.854,3.363 24.071,8.288 33.713,14.863c-4.75,10.462 -8.425,19.104 -11.067,25.854c-2.646,6.788 -4.858,12.967 -6.646,18.642l-5.821,-2.604c-3.82,-13.963 -9.679,-24.355 -17.608,-31.217c-8,-6.788 -18.142,-10.246 -30.429,-10.246c-17.392,0 -31.138,7.746 -41.067,23.321c-10.075,15.496 -15.004,36.854 -15.004,64c0,29.354 5.5,51.712 16.575,67.071c11.067,15.429 27.288,23.137 48.354,23.137c9.571,0 18.929,-1.779 28.142,-5.246c9.287,-3.575 18.004,-8.787 26.254,-15.679" style="fill:#181410;fill-rule:nonzero;"/><path d="M4094.21,1281.35c2.567,-9.212 5.071,-18.854 7.567,-29.108c2.429,-10.217 4.787,-20.996 6.895,-32.392l5.892,0c3.929,17.317 11.571,30.713 22.929,40.283c11.354,9.5 25.425,14.25 42.067,14.25c15.075,0 27.15,-4.066 36.183,-12.283c9.034,-8.142 13.609,-19.108 13.609,-32.75c-0,-9.825 -2.896,-18.321 -8.646,-25.392c-5.784,-7.145 -19.929,-16.716 -42.359,-28.933c-34.533,-18.392 -57.033,-34.358 -67.425,-47.75c-10.358,-13.387 -15.575,-30 -15.575,-49.887c0,-27.005 9.571,-48.825 28.755,-65.575c19.175,-16.75 44.57,-25.109 76.137,-25.109c13.754,0 26.538,1.717 38.217,5.071c11.679,3.467 22.787,8.717 33.254,15.821c-3.075,8.787 -5.892,17.287 -8.288,25.537c-2.57,8.25 -4.783,16.146 -6.641,23.75l-4.825,0c-4.5,-13.316 -12.067,-23.75 -22.75,-31.425c-10.679,-7.645 -22.959,-11.504 -36.996,-11.504c-13.113,0 -23.538,3.538 -31.538,10.788c-7.966,7.179 -11.929,16.641 -11.929,28.396c0,9.925 2.929,18.316 8.821,25.283c5.967,6.967 19.142,15.787 39.429,26.358c4.575,2.425 11.071,5.713 19.646,9.784c23.783,11.716 38.963,20.891 45.5,27.537c7.925,8.25 13.854,17.317 17.675,27.142c3.825,9.821 5.788,20.825 5.788,33c-0,30.037 -10.109,54.25 -30.43,72.537c-20.32,18.321 -47.395,27.463 -81.325,27.463c-17.854,-0 -33.283,-1.75 -46.391,-5.146c-13.034,-3.463 -24.109,-8.746 -33.246,-15.746" style="fill:#181410;fill-rule:nonzero;"/><path d="M4484.78,1254.67l3.037,2.038c-1.037,7.25 -1.75,12.679 -2.321,16.141c-0.462,3.5 -0.929,6.571 -1.212,9.217c-10.108,6.604 -20.783,11.533 -32.004,14.783c-11.25,3.18 -23.288,4.821 -36.213,4.821c-34.929,0 -62.641,-9.929 -83.141,-29.75c-20.5,-19.929 -30.75,-46.854 -30.75,-80.746c-0,-33.97 10.533,-61.362 31.533,-82.183c21.075,-20.821 48.783,-31.25 83.217,-31.25c15.5,0 29.641,1.679 42.462,5.033c12.821,3.363 24.075,8.288 33.571,14.863c-4.638,10.462 -8.317,19.104 -10.963,25.854c-2.645,6.788 -4.82,12.967 -6.57,18.642l-5.896,-2.604c-3.817,-13.963 -9.675,-24.355 -17.604,-31.217c-7.967,-6.788 -18.146,-10.246 -30.43,-10.246c-17.358,0 -31.075,7.746 -41.07,23.321c-10.075,15.496 -15.005,36.854 -15.005,64c0,29.354 5.505,51.712 16.575,67.071c11.142,15.429 27.288,23.137 48.43,23.137c9.57,0 18.929,-1.779 28.141,-5.246c9.213,-3.575 17.854,-8.787 26.213,-15.679" style="fill:#181410;fill-rule:nonzero;"/><path d="M4515.1,1296.42c1.254,-15.608 2.179,-35.033 2.679,-58.179c0.533,-23.146 0.788,-56.575 0.788,-100.396c-0,-46.387 -0.255,-82.571 -0.788,-108.529c-0.5,-25.933 -1.425,-48.291 -2.679,-67.004c6.108,1.179 11.825,2 17.075,2.604c5.321,0.571 10.392,0.859 15.25,0.859c5.279,-0 10.571,-0.288 15.925,-0.859c5.358,-0.604 10.929,-1.425 16.717,-2.604c-1.5,12.213 -2.609,25.321 -3.425,39.25c-0.863,13.925 -1.217,28.967 -1.217,45.071l-0,69.571c8.108,-12.463 17.925,-21.713 29.354,-27.963c11.5,-6.179 24.538,-9.283 39.358,-9.283c10.717,-0 20.571,1.816 29.467,5.496c8.958,3.716 16.392,9.07 22.533,16.141c5.217,5.967 8.93,13.396 11.067,22.25c2.15,8.821 3.258,23.113 3.258,42.788c0,2.858 -0.075,10.571 -0.216,22.891c-0.179,12.467 -0.25,23.359 -0.25,32.717c-0,16.392 0.25,30.5 0.712,42.321c0.5,11.783 1.217,22.783 2.217,32.858c-6.142,-0.75 -12,-1.287 -17.533,-1.716c-5.542,-0.392 -10.755,-0.571 -15.58,-0.571c-5.1,-0 -10.316,0.179 -15.67,0.571c-5.292,0.429 -11.08,0.966 -17.359,1.716c1.104,-12.537 1.925,-27.608 2.534,-45.108c0.604,-17.496 0.891,-36.892 0.891,-58.321c0,-32.287 -2.5,-53.037 -7.571,-62.321c-5.07,-9.325 -14.287,-14.075 -27.716,-14.075c-13.5,0 -23.071,5.604 -28.925,16.717c-5.859,11.142 -8.859,29.962 -8.859,56.396c0,13.854 0.284,29.891 0.746,47.996c0.467,18.075 1.15,37.641 1.971,58.716c-5.858,-0.75 -11.362,-1.287 -16.717,-1.716c-5.395,-0.392 -10.57,-0.571 -15.712,-0.571c-4.858,-0 -10.004,0.179 -15.429,0.571c-5.288,0.429 -10.963,0.966 -16.896,1.716" style="fill:#181410;fill-rule:nonzero;"/><path d="M4807.56,1190.02c0,33.788 3.504,57.504 10.571,71.288c6.967,13.75 18.792,20.641 35.358,20.641c16.646,0 28.538,-6.929 35.609,-20.712c7.108,-13.892 10.683,-37.609 10.683,-71.217c-0,-33.75 -3.575,-57.567 -10.683,-71.571c-7.071,-14 -18.963,-20.962 -35.609,-20.962c-16.566,-0 -28.391,6.929 -35.358,20.746c-7.067,13.825 -10.571,37.754 -10.571,71.787m-65.567,0c0,-35.462 9.855,-62.996 29.567,-82.717c19.788,-19.675 47.213,-29.529 82.288,-29.529c35.716,0 63.216,9.717 82.57,29.213c19.288,19.462 28.93,47.179 28.93,83.033c-0,35.179 -9.855,62.608 -29.575,82.217c-19.567,19.575 -47.067,29.429 -82.284,29.429c-35.462,-0 -62.962,-9.75 -82.354,-29.358c-19.429,-19.463 -29.142,-46.93 -29.142,-82.288" style="fill:#181410;fill-rule:nonzero;"/><path d="M5044.14,1190.02c-0,33.788 3.57,57.504 10.57,71.288c7.042,13.75 18.825,20.641 35.359,20.641c16.646,0 28.575,-6.929 35.646,-20.712c7.141,-13.892 10.679,-37.609 10.679,-71.217c-0,-33.75 -3.538,-57.567 -10.679,-71.571c-7.071,-14 -19,-20.962 -35.646,-20.962c-16.534,-0 -28.317,6.929 -35.359,20.746c-7,13.825 -10.57,37.754 -10.57,71.787m-65.496,0c-0,-35.462 9.821,-62.996 29.608,-82.717c19.75,-19.675 47.175,-29.529 82.25,-29.529c35.708,0 63.213,9.717 82.496,29.213c19.321,19.462 28.929,47.179 28.929,83.033c0,35.179 -9.783,62.608 -29.425,82.217c-19.754,19.575 -47.146,29.429 -82.433,29.429c-35.359,-0 -62.784,-9.75 -82.284,-29.358c-19.462,-19.463 -29.141,-46.93 -29.141,-82.288" style="fill:#181410;fill-rule:nonzero;"/><path d="M5230.93,1296.42c1.175,-25.075 1.995,-51.212 2.604,-78.5c0.608,-27.254 0.896,-56.466 0.896,-87.679c-0,-33.041 -0.288,-63.25 -0.896,-90.608c-0.609,-27.321 -1.429,-53.071 -2.604,-77.321c7.104,1.142 13.141,1.821 18.212,2.321c4.996,0.392 9.929,0.608 14.713,0.608c4.787,0 9.929,-0.287 15.179,-0.754c5.396,-0.462 11.391,-1.175 18.033,-2.175c-1.175,25.108 -1.996,51.288 -2.604,78.571c-0.608,27.25 -0.896,56.466 -0.896,87.641c0,33.038 0.288,63.292 0.896,90.571c0.608,27.4 1.429,53.179 2.604,77.325c-4.925,-0.929 -10.175,-1.679 -15.642,-2.179c-5.429,-0.429 -11.175,-0.75 -17.141,-0.75c-5.854,0 -11.567,0.321 -17.109,0.75c-5.462,0.5 -10.891,1.25 -16.245,2.179" style="fill:#181410;fill-rule:nonzero;"/></g></svg>